<svg xmlns="http://www.w3.org/2000/svg" width="50" height="46" viewBox="0 0 50 46" fill="none">
<g filter="url(#filter0_i_58619_803)">
<path d="M0 23C0 10.2975 10.2975 0 23 0H27C39.7025 0 50 10.2975 50 23C50 35.7025 39.7025 46 27 46H23C10.2975 46 0 35.7025 0 23Z" fill="url(#paint0_linear_58619_803)"/>
<path d="M23.7002 13.1662C24.842 13.1673 25.9527 13.5401 26.8643 14.2278C27.7756 14.9154 28.4394 15.8803 28.7539 16.9778C29.0684 18.0753 29.0172 19.2458 28.6084 20.3117C28.2508 21.2438 27.6355 22.0515 26.8398 22.6447C26.8747 22.6666 26.9087 22.6902 26.9395 22.718C27.0325 22.8021 27.1013 22.9098 27.1387 23.0295C27.1761 23.1493 27.18 23.2775 27.1514 23.3996C27.1227 23.5215 27.0621 23.6334 26.9756 23.7238L26.9697 23.7307L26.8262 23.5813L26.9688 23.7307C26.8788 23.8167 26.7682 23.8781 26.6475 23.9084C26.5267 23.9387 26.4002 23.9369 26.2803 23.9035L26.2773 23.9026C25.8035 23.7641 25.312 23.6948 24.8184 23.6965H22.5742L22.3086 23.7033C20.9845 23.7698 19.728 24.3249 18.7861 25.2668C17.8443 26.2087 17.2892 27.4652 17.2227 28.7893L17.2158 29.0549C17.2156 29.0994 17.2257 29.1438 17.2451 29.1838C17.2642 29.2231 17.2919 29.2582 17.3262 29.2854L17.7451 29.5871C19.8717 31.0396 22.461 31.6707 25.0283 31.3518C25.1183 31.3392 25.2098 31.3448 25.2979 31.3674C25.3872 31.3904 25.4714 31.4308 25.5449 31.4865C25.6184 31.5422 25.6803 31.6119 25.7266 31.6916C25.7728 31.7714 25.8026 31.86 25.8145 31.9514C25.8263 32.0427 25.8202 32.136 25.7959 32.2248C25.7716 32.3135 25.7295 32.3965 25.6729 32.469C25.6161 32.5416 25.5453 32.6026 25.4648 32.6477C25.385 32.6924 25.2969 32.72 25.2061 32.7307C24.7174 32.7942 24.2252 32.8272 23.7324 32.8274H23.7305C21.1249 32.8062 18.5934 31.9572 16.501 30.4045H16.5C16.29 30.2478 16.1192 30.0442 16.002 29.8098C15.8847 29.5753 15.8245 29.3161 15.8252 29.0539L15.8311 28.7717C15.8898 27.364 16.3885 26.0073 17.2607 24.8947C18.0994 23.8249 19.24 23.0376 20.5293 22.6291C19.7415 22.0354 19.1341 21.2302 18.7803 20.3029C18.3733 19.2362 18.3241 18.066 18.6406 16.969C18.9572 15.8719 19.6224 14.9069 20.5352 14.2209C21.4478 13.5352 22.5587 13.1652 23.7002 13.1662ZM24.4482 14.6389C23.6976 14.4901 22.9197 14.5675 22.2129 14.8606C21.5061 15.1537 20.9015 15.6491 20.4766 16.2854C20.0515 16.9217 19.8252 17.6705 19.8252 18.4358C19.8264 19.4608 20.2338 20.4438 20.958 21.1692C21.6823 21.8945 22.6644 22.3031 23.6895 22.3059H23.7021C24.4673 22.3046 25.215 22.0766 25.8506 21.6506C26.4862 21.2246 26.9815 20.6196 27.2734 19.9123C27.5653 19.2051 27.6411 18.4272 27.4912 17.677C27.3412 16.9267 26.9721 16.2371 26.4307 15.6965C25.8891 15.1558 25.1989 14.7877 24.4482 14.6389Z" fill="white" stroke="white" stroke-width="0.4125"/>
<path d="M29.5664 23.6788C30.4643 23.6789 31.3423 23.9456 32.0889 24.4444C32.8353 24.9433 33.4171 25.6521 33.7607 26.4815C34.1044 27.3112 34.1947 28.2248 34.0195 29.1056C33.8443 29.9862 33.4113 30.7949 32.7764 31.4298C32.1415 32.0647 31.3328 32.4977 30.4521 32.6729C29.5714 32.8481 28.6578 32.7578 27.8281 32.4142C26.9987 32.0705 26.2899 31.4887 25.791 30.7423C25.2922 29.9957 25.0255 29.1177 25.0254 28.2198V28.2188C25.0269 27.0153 25.5054 25.8609 26.3564 25.0099C27.2075 24.1588 28.3618 23.6803 29.5654 23.6788H29.5664ZM29.5664 24.9327C28.6949 24.9337 27.8594 25.2803 27.2432 25.8966C26.6269 26.5128 26.2803 27.3483 26.2793 28.2198C26.2794 28.8698 26.4719 29.5056 26.833 30.046C27.1941 30.5862 27.7073 31.0072 28.3076 31.256C28.9082 31.5047 29.5695 31.5702 30.207 31.4435C30.8446 31.3166 31.4309 31.0037 31.8906 30.544C32.3503 30.0843 32.6632 29.4981 32.79 28.8604C32.9168 28.2229 32.8513 27.5616 32.6025 26.961C32.3538 26.3608 31.9328 25.8475 31.3926 25.4864C30.8522 25.1253 30.2164 24.9328 29.5664 24.9327Z" fill="white" stroke="white" stroke-width="0.275"/>
<path d="M30.2197 26.3661C30.365 26.3642 30.5058 26.4185 30.6113 26.5184L30.6123 26.5204L31.917 27.8251H31.918C32.0218 27.9299 32.0801 28.072 32.0801 28.2196C32.08 28.367 32.0217 28.5084 31.918 28.6132L31.917 28.6141L30.6133 29.9159L30.6143 29.9169C30.5633 29.9715 30.5018 30.0153 30.4336 30.0458C30.3652 30.0763 30.2907 30.0923 30.2158 30.0936C30.141 30.0949 30.0665 30.0816 29.9971 30.0536C29.9277 30.0255 29.8645 29.9835 29.8115 29.9305C29.7586 29.8776 29.7165 29.8144 29.6885 29.745C29.6605 29.6756 29.6471 29.6011 29.6484 29.5262C29.6498 29.4515 29.6659 29.3778 29.6963 29.3094C29.7268 29.241 29.7714 29.1789 29.8262 29.1278L30.1768 28.7772H27.6094C27.4615 28.7772 27.3195 28.7187 27.2148 28.6141C27.1103 28.5095 27.0518 28.3675 27.0518 28.2196C27.0518 28.0717 27.1103 27.9297 27.2148 27.8251C27.3195 27.7204 27.4614 27.661 27.6094 27.661H30.1758L29.8242 27.3094L29.8232 27.3075C29.7232 27.2021 29.6682 27.0622 29.6699 26.9169C29.6718 26.7714 29.7302 26.6321 29.833 26.5292C29.9357 26.4264 30.0744 26.3681 30.2197 26.3661Z" fill="white" stroke="white" stroke-width="0.1375"/>
</g>
<defs>
<filter id="filter0_i_58619_803" x="-1" y="-2" width="51" height="48" filterUnits="userSpaceOnUse" color-interpolation-filters="sRGB">
<feFlood flood-opacity="0" result="BackgroundImageFix"/>
<feBlend mode="normal" in="SourceGraphic" in2="BackgroundImageFix" result="shape"/>
<feColorMatrix in="SourceAlpha" type="matrix" values="0 0 0 0 0 0 0 0 0 0 0 0 0 0 0 0 0 0 127 0" result="hardAlpha"/>
<feOffset dx="-1" dy="-2"/>
<feGaussianBlur stdDeviation="2"/>
<feComposite in2="hardAlpha" operator="arithmetic" k2="-1" k3="1"/>
<feColorMatrix type="matrix" values="0 0 0 0 0 0 0 0 0 0 0 0 0 0 0 0 0 0 0.17 0"/>
<feBlend mode="normal" in2="shape" result="effect1_innerShadow_58619_803"/>
</filter>
<linearGradient id="paint0_linear_58619_803" x1="-2.16895" y1="-5.62713" x2="52.1792" y2="-2.80054" gradientUnits="userSpaceOnUse">
<stop stop-color="#B1FFEF"/>
<stop offset="0.328987" stop-color="#9933FF"/>
<stop offset="1" stop-color="#FFB0FF"/>
</linearGradient>
</defs>
</svg>