<svg width="22" height="22" viewBox="0 0 22 22" fill="none" xmlns="http://www.w3.org/2000/svg">
<path d="M9.7002 1.16623C10.842 1.1673 11.9527 1.54007 12.8643 2.22775C13.7756 2.91537 14.4394 3.88026 14.7539 4.97775C15.0684 6.07526 15.0172 7.24579 14.6084 8.31174C14.2508 9.2438 13.6355 10.0515 12.8398 10.6447C12.8747 10.6666 12.9087 10.6902 12.9395 10.718C13.0325 10.8021 13.1013 10.9098 13.1387 11.0295C13.1761 11.1493 13.18 11.2775 13.1514 11.3996C13.1227 11.5215 13.0621 11.6334 12.9756 11.7238L12.9697 11.7307L12.8262 11.5813L12.9688 11.7307C12.8788 11.8167 12.7682 11.8781 12.6475 11.9084C12.5267 11.9387 12.4002 11.9369 12.2803 11.9035L12.2773 11.9026C11.8035 11.7641 11.312 11.6948 10.8184 11.6965H8.57422L8.30859 11.7033C6.98452 11.7698 5.72801 12.3249 4.78613 13.2668C3.84426 14.2087 3.28917 15.4652 3.22266 16.7893L3.21582 17.0549C3.21561 17.0994 3.22571 17.1438 3.24512 17.1838C3.26424 17.2231 3.29193 17.2582 3.32617 17.2854L3.74512 17.5871C5.87169 19.0396 8.46101 19.6707 11.0283 19.3518C11.1183 19.3392 11.2098 19.3448 11.2979 19.3674C11.3872 19.3904 11.4714 19.4308 11.5449 19.4865C11.6184 19.5422 11.6803 19.6119 11.7266 19.6916C11.7728 19.7714 11.8026 19.86 11.8145 19.9514C11.8263 20.0427 11.8202 20.136 11.7959 20.2248C11.7716 20.3135 11.7295 20.3965 11.6729 20.469C11.6161 20.5416 11.5453 20.6026 11.4648 20.6477C11.385 20.6924 11.2969 20.72 11.2061 20.7307C10.7174 20.7942 10.2252 20.8272 9.73242 20.8274H9.73047C7.12494 20.8062 4.59341 19.9572 2.50098 18.4045H2.5C2.28999 18.2478 2.11917 18.0442 2.00195 17.8098C1.88471 17.5753 1.82453 17.3161 1.8252 17.0539L1.83105 16.7717C1.88981 15.364 2.38855 14.0073 3.26074 12.8947C4.09943 11.8249 5.23996 11.0376 6.5293 10.6291C5.74149 10.0354 5.13407 9.23018 4.78027 8.30295C4.37329 7.23618 4.32411 6.06598 4.64062 4.96896C4.9572 3.87189 5.62235 2.9069 6.53516 2.22092C7.44777 1.53524 8.55869 1.16525 9.7002 1.16623ZM10.4482 2.63889C9.69765 2.49008 8.91973 2.56745 8.21289 2.86057C7.50614 3.15368 6.90155 3.64913 6.47656 4.28537C6.05154 4.92173 5.8252 5.67051 5.8252 6.43576C5.82641 7.46077 6.23379 8.44378 6.95801 9.16916C7.68228 9.89447 8.66444 10.3031 9.68945 10.3059H9.70215C10.4673 10.3046 11.215 10.0766 11.8506 9.6506C12.4862 9.22457 12.9815 8.61959 13.2734 7.91232C13.5653 7.20514 13.6411 6.42719 13.4912 5.67697C13.3412 4.92668 12.9721 4.23715 12.4307 3.6965C11.8891 3.15582 11.1989 2.78773 10.4482 2.63889Z" fill="white" stroke="white" stroke-width="0.4125"/>
<path d="M15.5664 11.6788C16.4643 11.6789 17.3423 11.9456 18.0889 12.4444C18.8353 12.9433 19.4171 13.6521 19.7607 14.4815C20.1044 15.3112 20.1947 16.2248 20.0195 17.1056C19.8443 17.9862 19.4113 18.7949 18.7764 19.4298C18.1415 20.0647 17.3328 20.4977 16.4521 20.6729C15.5714 20.8481 14.6578 20.7578 13.8281 20.4142C12.9987 20.0705 12.2899 19.4887 11.791 18.7423C11.2922 17.9957 11.0255 17.1177 11.0254 16.2198V16.2188C11.0269 15.0153 11.5054 13.8609 12.3564 13.0099C13.2075 12.1588 14.3618 11.6803 15.5654 11.6788H15.5664ZM15.5664 12.9327C14.6949 12.9337 13.8594 13.2803 13.2432 13.8966C12.6269 14.5128 12.2803 15.3483 12.2793 16.2198C12.2794 16.8698 12.4719 17.5056 12.833 18.046C13.1941 18.5862 13.7073 19.0072 14.3076 19.256C14.9082 19.5047 15.5695 19.5702 16.207 19.4435C16.8446 19.3166 17.4309 19.0037 17.8906 18.544C18.3503 18.0843 18.6632 17.4981 18.79 16.8604C18.9168 16.2229 18.8513 15.5616 18.6025 14.961C18.3538 14.3608 17.9328 13.8475 17.3926 13.4864C16.8522 13.1253 16.2164 12.9328 15.5664 12.9327Z" fill="white" stroke="white" stroke-width="0.275"/>
<path d="M16.2197 14.3661C16.365 14.3642 16.5058 14.4185 16.6113 14.5184L16.6123 14.5204L17.917 15.8251H17.918C18.0218 15.9299 18.0801 16.072 18.0801 16.2196C18.08 16.367 18.0217 16.5084 17.918 16.6132L17.917 16.6141L16.6133 17.9159L16.6143 17.9169C16.5633 17.9715 16.5018 18.0153 16.4336 18.0458C16.3652 18.0763 16.2907 18.0923 16.2158 18.0936C16.141 18.0949 16.0665 18.0816 15.9971 18.0536C15.9277 18.0255 15.8645 17.9835 15.8115 17.9305C15.7586 17.8776 15.7165 17.8144 15.6885 17.745C15.6605 17.6756 15.6471 17.6011 15.6484 17.5262C15.6498 17.4515 15.6659 17.3778 15.6963 17.3094C15.7268 17.241 15.7714 17.1789 15.8262 17.1278L16.1768 16.7772H13.6094C13.4615 16.7772 13.3195 16.7187 13.2148 16.6141C13.1103 16.5095 13.0518 16.3675 13.0518 16.2196C13.0518 16.0717 13.1103 15.9297 13.2148 15.8251C13.3195 15.7204 13.4614 15.661 13.6094 15.661H16.1758L15.8242 15.3094L15.8232 15.3075C15.7232 15.2021 15.6682 15.0622 15.6699 14.9169C15.6718 14.7714 15.7302 14.6321 15.833 14.5292C15.9357 14.4264 16.0744 14.3681 16.2197 14.3661Z" fill="white" stroke="white" stroke-width="0.1375"/>
</svg>
