<svg xmlns="http://www.w3.org/2000/svg" style="width: 28px; height: auto;" class="icon icon-hamburger" width="42" height="42" viewBox="0 0 42 42" fill="none">
<path fill-rule="evenodd" clip-rule="evenodd" d="M5.25 8.75C5.25 7.78351 6.03351 7 7 7H28C28.9665 7 29.75 7.78351 29.75 8.75C29.75 9.71651 28.9665 10.5 28 10.5H7C6.03351 10.5 5.25 9.71649 5.25 8.75Z" fill="black"></path>
<path fill-rule="evenodd" clip-rule="evenodd" d="M5.25 21C5.25 20.0335 6.03351 19.25 7 19.25H35C35.9665 19.25 36.75 20.0335 36.75 21C36.75 21.9665 35.9665 22.75 35 22.75H7C6.03351 22.75 5.25 21.9665 5.25 21Z" fill="black"></path>
<path fill-rule="evenodd" clip-rule="evenodd" d="M5.25 33.25C5.25 32.2835 6.03351 31.5 7 31.5H21C21.9665 31.5 22.75 32.2835 22.75 33.25C22.75 34.2165 21.9665 35 21 35H7C6.03351 35 5.25 34.2165 5.25 33.25Z" fill="black"></path>
</svg>