<svg width="24" height="24" viewBox="0 0 24 24" fill="none" xmlns="http://www.w3.org/2000/svg">
<g clip-path="url(#clip0_58619_767)">
<g clip-path="url(#clip1_58619_767)">
<mask id="mask0_58619_767" style="mask-type:luminance" maskUnits="userSpaceOnUse" x="0" y="0" width="24" height="24">
<path d="M0.706055 0.705872H23.2943V23.2941H0.706055V0.705872Z" fill="white"/>
</mask>
<g mask="url(#mask0_58619_767)">
<path d="M15.7273 11.5581L11.0346 8.14868C10.9504 8.08715 10.8508 8.05014 10.7469 8.04175C10.6429 8.03336 10.5387 8.05391 10.4457 8.10113C10.3527 8.14835 10.2747 8.22039 10.2201 8.30927C10.1656 8.39815 10.1367 8.5004 10.1367 8.60468V15.4221C10.137 15.5262 10.166 15.6283 10.2207 15.717C10.2753 15.8057 10.3534 15.8775 10.4463 15.9245C10.5393 15.9716 10.6434 15.992 10.7472 15.9836C10.851 15.9751 10.9505 15.9381 11.0346 15.8767L15.7245 12.4701C15.7968 12.418 15.8557 12.3495 15.8963 12.2703C15.9369 12.191 15.9581 12.1032 15.9581 12.0141C15.9581 11.925 15.9369 11.8372 15.8963 11.7579C15.8557 11.6786 15.7968 11.6101 15.7245 11.5581H15.7273Z" fill="#FE01FF"/>
<path d="M12 0.707283C10.502 0.683596 9.01428 0.958187 7.62343 1.51507C6.23258 2.07195 4.96642 2.89998 3.8987 3.95096C2.83098 5.00193 1.98302 6.25483 1.40422 7.63671C0.825423 9.01858 0.527344 10.5018 0.527344 12C0.527344 13.4982 0.825423 14.9814 1.40422 16.3633C1.98302 17.7451 2.83098 18.9981 3.8987 20.049C4.96642 21.1 6.23258 21.928 7.62343 22.4849C9.01428 23.0418 10.502 23.3164 12 23.2927C14.9952 23.2927 17.8678 22.1029 19.9857 19.9849C22.1036 17.867 23.2934 14.9945 23.2934 11.9993C23.2934 9.00409 22.1036 6.13156 19.9857 4.01364C17.8678 1.89571 14.9952 0.707283 12 0.707283ZM12 21.408C10.7646 21.4082 9.54128 21.165 8.39985 20.6924C7.25843 20.2197 6.22129 19.5269 5.34766 18.6534C4.47402 17.7799 3.78101 16.7428 3.3082 15.6015C2.83539 14.4601 2.59203 13.2368 2.59203 12.0014C2.59241 9.50623 3.58368 7.11334 5.3479 5.34885C7.11212 3.58437 9.50486 2.59274 12 2.59199C14.467 2.63473 16.8184 3.64472 18.5479 5.40441C20.2773 7.1641 21.2465 9.53269 21.2465 12C21.2465 14.4673 20.2773 16.8359 18.5479 18.5956C16.8184 20.3553 14.467 21.3652 12 21.408Z" fill="#FE01FF"/>
</g>
</g>
</g>
<defs>
<clipPath id="clip0_58619_767">
<rect width="24" height="24" fill="white"/>
</clipPath>
<clipPath id="clip1_58619_767">
<rect width="24" height="24" fill="white"/>
</clipPath>
</defs>
</svg>