<svg
                        width="15"
                        height="14"
                        viewBox="0 0 15 14"
                        fill="none"
                        xmlns="http://www.w3.org/2000/svg"
                      >
                        <path
                          d="M7.48434 0.176658L9.53962 4.35486L14.134 5.02502C14.1923 5.03369 14.2471 5.05847 14.292 5.09657C14.337 5.13466 14.3705 5.18456 14.3887 5.24064C14.4068 5.29672 14.409 5.35676 14.3949 5.414C14.3807 5.47124 14.3509 5.52339 14.3088 5.5646L10.9849 8.81616L11.7696 13.4084C11.7798 13.4664 11.7734 13.5261 11.7513 13.5808C11.7292 13.6354 11.6923 13.6827 11.6446 13.7174C11.597 13.7521 11.5406 13.7727 11.4818 13.777C11.4231 13.7813 11.3643 13.769 11.3121 13.7416L7.2025 11.5739L3.09288 13.7422C3.04077 13.7697 2.98198 13.7821 2.9232 13.7779C2.86441 13.7737 2.80798 13.7531 2.76032 13.7184C2.71266 13.6837 2.67568 13.6364 2.65359 13.5817C2.6315 13.5271 2.62518 13.4674 2.63535 13.4093L3.42014 8.81616L0.0953001 5.5646C0.0531427 5.52339 0.0233271 5.47124 0.00921095 5.414C-0.00490518 5.35676 -0.00276116 5.29672 0.0154016 5.24064C0.0335644 5.18456 0.0670244 5.13466 0.112014 5.09657C0.157003 5.05847 0.211734 5.03369 0.270044 5.02502L4.86444 4.35486L6.92065 0.176658C6.9463 0.123711 6.98634 0.0790583 7.03618 0.0478146C7.08603 0.016571 7.14367 0 7.2025 0C7.26133 0 7.31897 0.016571 7.36882 0.0478146C7.41866 0.0790583 7.4587 0.123711 7.48434 0.176658Z"
                          fill="url(#paint0_linear_58619_2340)"
                        ></path>
                        <defs>
                          <linearGradient
                            id="paint0_linear_58619_2340"
                            x1="-0.624834"
                            y1="-1.68553"
                            x2="15.035"
                            y2="-0.902228"
                            gradientUnits="userSpaceOnUse"
                          >
                            <stop stop-color="#B1FFEF"></stop>
                            <stop offset="0.328987" stop-color="#BABDFD"></stop>
                            <stop offset="1" stop-color="#FFB0FF"></stop>
                          </linearGradient>
                        </defs>
                      </svg>