<svg width="217" height="45" viewBox="0 0 217 45" fill="none" xmlns="http://www.w3.org/2000/svg">
<path d="M49.3558 33.6845C48.3838 33.6845 48.2482 34.3166 47.5814 34.3166C46.9145 34.3166 46.5416 33.9102 46.3042 32.4766C46.033 30.8737 45.773 29.3385 45.6374 27.6C45.6035 26.697 45.773 26.1326 46.4059 26.1326C47.0389 26.1326 47.2762 26.5389 47.8752 27.5323C48.8472 29.4062 50.8251 32.1154 54.6 32.1154C58.3749 32.1154 58.1149 30.614 58.1827 29.045C58.2505 26.7421 55.4363 25.5004 52.6221 24.0668C48.9715 22.2268 45.9991 20.8948 45.9991 16.9438C45.9991 12.9929 49.4123 10.295 54.3739 10.295C59.3355 10.295 57.3916 10.7578 58.1601 10.7578C58.9286 10.7578 59.1999 10.295 59.8667 10.295C60.5335 10.295 60.8387 10.6336 61.1439 12.0673C61.4151 13.2412 61.6751 14.6071 61.8107 16.0746C61.8785 16.9777 61.6751 17.5421 60.9743 17.5421C60.2736 17.5421 60.0363 17.1132 59.4033 16.1424C58.2957 14.5055 56.4874 12.3946 53.8766 12.3946C51.2658 12.3946 50.5651 13.6025 50.5651 15.2732C50.5651 16.9438 52.4752 18.4452 55.9562 20.2175C59.8102 22.1591 62.9861 23.4572 63.02 27.205C63.0878 31.6864 58.7704 34.294 54.2496 34.294C49.7288 34.294 50.2713 33.6958 49.3671 33.6958L49.3558 33.6845Z" fill="#443853"/>
<path d="M65.6876 23.2089C65.6876 20.9061 64.0827 21.1318 64.0827 20.1272C64.0827 19.1225 64.3201 19.4273 65.1225 19.0548C66.524 18.4226 68.9426 17.6211 69.4738 17.6211C70.005 17.5873 70.2424 17.9259 70.2424 18.6258L70.2085 23.2089V29.3272C70.2085 32.4315 71.8473 31.6639 71.8473 33.1426C71.8473 34.6214 71.2822 33.978 70.378 33.978H65.5859C64.6139 33.978 64.0488 33.7748 64.0488 33.1088C64.0488 31.6752 65.6876 32.4428 65.6876 29.3272V23.2089ZM64.8174 13.7154C64.8513 12.1801 66.6257 10.4756 68.3323 10.5433C69.5416 10.5772 70.4458 11.5141 70.4458 12.6543C70.378 14.2911 68.5697 15.7924 66.8291 15.7586C65.552 15.7247 64.7835 14.8216 64.8174 13.7154Z" fill="#443853"/>
<path d="M91.8741 30.1964C92.3149 32.2396 93.6486 31.9687 93.6486 33.1426C93.6486 34.3166 93.0835 33.978 92.1793 33.978H87.4889C86.5508 33.978 85.9857 33.7748 85.9857 33.1088C85.9857 32.0025 87.7263 32.1041 87.2968 29.9368L86.257 24.6538C85.8501 22.5429 85.2172 20.4771 83.0133 20.511C81.2389 20.511 79.634 22.1139 79.634 25.0602V29.3385C79.634 32.4428 81.2389 31.6752 81.2389 33.1539C81.2389 34.6327 80.7077 33.9893 79.7696 33.9893H74.9775C74.0394 33.9893 73.4404 33.7861 73.4404 33.1201C73.4404 31.6864 75.1131 32.4541 75.1131 29.3385V22.9831C75.1131 22.0462 74.7402 21.4479 74.0734 20.9399C73.7343 20.7029 73.4404 20.4771 73.4404 20.003C73.4404 19.5289 73.7117 19.2354 74.5141 18.8629C75.7574 18.2646 77.8256 17.655 78.3681 17.6211C78.9332 17.6211 79.1706 17.9598 79.1706 18.6258V20.6351C80.4477 18.6258 82.4821 17.5873 84.6295 17.5873C88.4496 17.5873 89.885 20.0594 90.7552 24.4732L91.8967 30.1851L91.8741 30.1964Z" fill="#443853"/>
<path d="M104.453 30.9075C103.956 32.4089 102.215 34.3166 99.4011 34.3166C96.5869 34.3166 94.6429 32.4428 94.6429 29.0337V27.2953C94.6429 24.3151 94.6768 21.7753 94.7446 20.0368H93.8405C92.9363 20.0368 92.665 19.7321 92.665 19.1676C92.665 18.6032 92.8007 18.3662 93.1623 18.0275C94.4056 16.7519 96.0105 15.4538 97.378 14.6184C98.1465 14.1895 98.4178 14.1556 98.6212 14.1556C99.0846 14.1556 99.3898 14.5959 99.3559 15.0925C99.2541 15.9956 99.2202 16.8987 99.1863 17.9372H102.498C103.131 17.9372 103.673 18.1065 103.47 19.1112C103.266 20.1159 102.701 20.2852 102.034 20.2513L99.1524 20.1497C99.1524 21.9897 99.1524 24.2587 99.1185 27.3066C99.0846 30.2867 99.5593 31.1898 101.062 31.1898C102.566 31.1898 102.769 30.7495 103.47 30.219C104.103 29.7561 104.679 30.219 104.442 30.9188L104.453 30.9075Z" fill="#443853"/>
<path d="M118.954 20.4771C118.954 21.8091 118.253 22.6783 117.315 22.7122C115.676 22.7122 115.744 20.9738 114.139 20.9738C112.534 20.9738 111.834 22.3735 111.834 24.8231V29.3385C111.834 32.4428 113.439 31.6752 113.439 33.1539C113.439 34.6327 112.907 33.9893 111.969 33.9893H107.177C106.239 33.9893 105.64 33.7861 105.64 33.1201C105.64 31.6864 107.313 32.4541 107.313 29.3385V22.9831C107.313 22.0462 106.94 21.4479 106.273 20.9399C105.934 20.7029 105.64 20.4771 105.64 20.003C105.64 19.5289 105.911 19.2354 106.714 18.8629C107.957 18.2646 110.025 17.655 110.568 17.6211C111.133 17.6211 111.37 17.9598 111.37 18.6258V20.6013C112.614 18.5581 114.388 17.5873 115.993 17.5873C117.598 17.5873 118.977 18.829 118.977 20.4658L118.954 20.4771Z" fill="#443853"/>
<path d="M119.146 26.5954C119.146 21.5833 123.068 17.5985 128.392 17.5985C133.715 17.5985 136.19 21.0076 136.19 25.4552C136.19 29.9029 132.336 34.3166 127.013 34.3166C121.689 34.3166 119.146 31.3365 119.146 26.5954ZM131.737 27.7919C131.737 23.9087 129.759 19.7998 126.888 19.7998C124.018 19.7998 123.577 22.0687 123.577 24.4506C123.577 28.3676 125.589 32.1041 128.459 32.1041C131.33 32.1041 131.737 30.0948 131.737 27.7919Z" fill="#443853"/>
<path d="M154.838 25.3875C154.838 31.3026 150.95 34.3166 147.435 34.3166C143.92 34.3166 144.056 33.6845 142.881 32.9507V36.0212C142.881 39.1255 144.519 38.3579 144.519 39.8366C144.519 41.3154 143.954 40.672 143.05 40.672H138.258C137.286 40.672 136.721 40.4688 136.721 39.8366C136.721 38.3692 138.36 39.1368 138.36 36.0212V22.9154C138.36 21.9785 137.987 21.3802 137.32 20.9061C137.015 20.6351 136.687 20.4094 136.687 19.9353C136.687 19.4611 136.958 19.1677 137.761 18.7951C139.038 18.2307 141.106 17.5873 141.615 17.5873C142.123 17.5873 142.417 17.8921 142.417 18.5919V20.5335C143.491 18.9645 145.265 17.5873 148.046 17.5873C150.826 17.5873 154.838 20.5335 154.838 25.3763V25.3875ZM150.453 27.2614C150.453 23.2879 148.814 20.3416 146.373 20.3416C143.932 20.3416 142.892 22.3848 142.892 24.7893V24.8909L142.926 27.0695C142.96 30.3431 145.107 32.2509 147.141 32.2509C149.515 32.217 150.453 29.6771 150.453 27.2727V27.2614Z" fill="#443853"/>
<path d="M156.771 23.2089C156.771 20.9061 155.166 21.1318 155.166 20.1272C155.166 19.1225 155.403 19.4273 156.206 19.0548C157.607 18.4226 160.026 17.6211 160.557 17.6211C161.088 17.5873 161.325 17.9259 161.325 18.6258L161.291 23.2089V29.3272C161.291 32.4315 162.93 31.6639 162.93 33.1426C162.93 34.6214 162.365 33.978 161.461 33.978H156.669C155.697 33.978 155.132 33.7748 155.132 33.1088C155.132 31.6752 156.771 32.4428 156.771 29.3272V23.2089ZM155.9 13.7154C155.934 12.1801 157.709 10.4756 159.415 10.5433C160.625 10.5772 161.529 11.5141 161.529 12.6543C161.461 14.2911 159.653 15.7924 157.912 15.7586C156.635 15.7247 155.866 14.8216 155.9 13.7154Z" fill="#443853"/>
<path d="M182.449 31.9686C182.449 33.1088 180.607 34.2376 179.002 34.2376C177.397 34.2376 176.663 33.4361 176.154 31.7654C174.583 33.5038 172.3 34.2715 170.3 34.2715C166.581 34.2715 164.174 32.1267 164.174 29.361C164.174 26.5954 166.988 23.841 171.735 23.841C176.482 23.841 173.272 23.9426 174.414 24.1119C173.815 22.001 173.136 20.3303 170.627 20.3303C168.118 20.3303 167.745 20.9625 166.547 21.6398C165.914 22.0462 165.214 21.5382 165.711 20.7028C166.547 19.3031 169.09 17.5985 172.311 17.5985C175.532 17.5985 177.872 20.5448 178.607 23.3217L180.245 29.6094C180.618 30.9753 181.082 31.4494 181.816 31.4155C182.189 31.4155 182.449 31.5848 182.449 31.9799V31.9686ZM175.589 29.2707C175.487 28.7063 175.182 27.871 174.888 26.697C174.651 25.9294 173.351 25.5907 172.277 25.5907C169.904 25.5907 168.491 26.7986 168.491 28.6386C168.525 30.5463 169.927 31.9461 172.108 31.9461C174.289 31.9461 175.86 30.6366 175.589 29.2707Z" fill="#443853"/>
<path d="M184.585 32.6685C184.585 31.5735 185.467 30.9188 186.359 30.9188C187.252 30.9188 187.93 31.4607 187.93 32.4879C187.93 33.5151 187.094 34.1924 186.156 34.1924C185.218 34.1924 184.585 33.6732 184.585 32.6572V32.6685Z" fill="#443853"/>
<path d="M200.273 28.616C200.273 31.5284 198.566 34.1812 195.628 34.2037C194.294 34.2263 192.757 33.7296 191.932 32.8266L191.954 35.5696C191.954 37.658 192.926 37.3645 192.926 37.9628C192.926 38.561 192.644 38.3127 192.146 38.3127H190.338C189.909 38.3127 189.558 38.245 189.558 37.9628C189.558 37.3645 190.598 37.658 190.598 35.5696L190.53 26.6631C190.53 25.8616 190.553 25.2182 189.909 24.857C189.626 24.7328 189.524 24.5973 189.524 24.4506C189.524 24.3038 189.592 24.1458 190.112 23.9087C190.779 23.5814 191.152 23.4572 191.434 23.4346C191.672 23.4121 191.819 23.4572 191.819 23.7959L191.796 25.8052C192.44 24.5748 193.887 23.4346 195.899 23.4346C198.747 23.4346 200.284 25.7826 200.284 28.6273L200.273 28.616ZM198.894 29.2594C198.894 25.8052 197.086 24.5183 195.413 24.5183C193.062 24.5183 191.932 26.7195 191.932 28.2886V29.8803C191.909 32.1831 194.113 33.4813 195.774 33.4361C197.865 33.4135 198.883 31.6413 198.883 29.2594H198.894Z" fill="#443853"/>
<path d="M202.386 33.549C202.081 32.7137 201.866 32.1493 201.584 31.2236C201.538 31.0317 201.584 30.8624 201.776 30.8172C201.945 30.7721 202.126 30.9076 202.296 31.0995C204.149 33.1878 205.279 33.3684 206.376 33.3684C207.472 33.3684 208.557 32.8492 208.557 31.6865C208.557 30.5238 207.28 30.1174 205.596 29.4401C203.607 28.6837 201.753 27.9726 201.753 26.2229C201.753 24.4732 203.437 23.4234 205.076 23.4234C206.715 23.4234 206.828 23.6153 207.359 23.6604C207.641 23.7056 207.721 23.4234 207.924 23.4234C208.127 23.4234 208.308 23.7507 208.489 24.0668C208.851 24.6877 209.054 25.1279 209.201 25.4891C209.292 25.681 209.325 25.9633 209.179 26.0761C208.873 26.2455 208.591 25.8617 207.845 25.2747C207.009 24.6312 205.969 24.1797 204.929 24.1797C203.889 24.1797 202.793 24.8457 202.793 25.7488C202.793 26.6518 203.867 27.284 206.014 28.0968C207.935 28.8079 209.766 29.6094 209.766 31.2462C209.766 32.883 208.365 34.2038 205.901 34.2038C203.437 34.2038 204.093 33.7974 203.652 33.7974C203.211 33.7974 203.222 34.2038 202.827 34.2038C202.431 34.2038 202.612 34.1135 202.375 33.5603L202.386 33.549Z" fill="#443853"/>
<path d="M212.411 26.7534C212.411 24.6199 211.314 25.1392 211.314 24.4732C211.314 23.8071 211.382 24.2135 211.902 23.9765C212.897 23.5024 213.134 23.4346 213.417 23.412C213.654 23.3895 213.801 23.4346 213.801 23.7733L213.778 26.7534V31.2349C213.778 33.3232 214.75 33.0297 214.75 33.628C214.75 34.2263 214.468 33.978 213.97 33.978H212.162C211.733 33.978 211.382 33.9102 211.382 33.628C211.382 33.0297 212.422 33.3232 212.422 31.2349V26.7534H212.411ZM211.484 20.6125C211.552 19.9465 212.411 19.1902 213.123 19.3144C213.597 19.3821 213.903 19.8788 213.835 20.2852C213.767 20.8496 212.908 21.5946 212.264 21.5156C211.812 21.4704 211.427 21.1544 211.484 20.6125Z" fill="#443853"/>
<path d="M29.6005 19.7208C25.5091 23.2766 20.1745 25.4553 14.3314 25.4553H13.9019C12.6361 25.4553 11.4154 25.2408 10.2626 24.8683C5.36882 29.124 2.26074 35.389 2.26074 42.3765H25.9612C32.3921 42.3765 37.6024 37.1726 37.6024 30.7495C37.6024 24.3264 34.2456 21.2334 29.6005 19.7095V19.7208Z" fill="#8A2EE6"/>
<path d="M25.9612 19.1338C27.227 19.1338 28.4477 19.3483 29.6005 19.7208C34.4943 15.4651 37.6024 9.20002 37.6024 2.21252H13.9019C7.471 2.21252 2.26074 7.41646 2.26074 13.8395C2.26074 20.2626 5.61746 23.3443 10.2626 24.8796C14.354 21.3237 19.6886 19.1451 25.5317 19.1451H25.9612V19.1338Z" fill="#FF00FF"/>
</svg>